<?xml version="1.0" encoding="utf-8"?>
<!-- Generator: Adobe Illustrator 15.0.0, SVG Export Plug-In . SVG Version: 6.00 Build 0)  -->
<!DOCTYPE svg PUBLIC "-//W3C//DTD SVG 1.1//EN" "http://www.w3.org/Graphics/SVG/1.1/DTD/svg11.dtd">
<svg version="1.1" id="レイヤー_1" xmlns="http://www.w3.org/2000/svg" xmlns:xlink="http://www.w3.org/1999/xlink" x="0px"
	 y="0px" width="24px" height="23.999px" viewBox="0 0 24 23.999" enable-background="new 0 0 24 23.999" xml:space="preserve">
<g>
	<path fill="#FFFFFF" d="M21.903,18.76c-0.664-1.616-3.007-2.036-4.12-3.149c-2.329-2.332-1.771-6.15-5.782-6.38
		C7.99,9.46,8.546,13.278,6.217,15.61c-1.113,1.113-3.456,1.533-4.12,3.149c-0.813,1.985,0.524,3.78,1.531,4.554
		c2.023,1.551,5.277,0.018,7.457-0.21c0.313-0.034,0.617-0.041,0.915-0.04c0.298-0.001,0.603,0.006,0.915,0.04
		c2.18,0.228,5.434,1.761,7.458,0.21C21.379,22.54,22.716,20.745,21.903,18.76z"/>
	
		<ellipse transform="matrix(0.9659 0.2589 -0.2589 0.9659 3.1245 -5.1613)" fill="#FFFFFF" cx="21.159" cy="9.282" rx="2.769" ry="3.694"/>
	
		<ellipse transform="matrix(0.9659 -0.2588 0.2588 0.9659 -2.3062 1.0517)" fill="#FFFFFF" cx="2.841" cy="9.284" rx="2.769" ry="3.692"/>
	
		<ellipse transform="matrix(0.9659 -0.2589 0.2589 0.9659 -0.6587 2.2747)" fill="#FFFFFF" cx="8.308" cy="3.639" rx="2.769" ry="3.691"/>
	
		<ellipse transform="matrix(0.9659 0.2588 -0.2588 0.9659 1.4767 -3.9379)" fill="#FFFFFF" cx="15.692" cy="3.639" rx="2.769" ry="3.691"/>
</g>
</svg>
